<?xml version="1.0" standalone="no"?>
<!DOCTYPE svg PUBLIC "-//W3C//DTD SVG 20010904//EN"
 "http://www.w3.org/TR/2001/REC-SVG-20010904/DTD/svg10.dtd">
<svg version="1.0" xmlns="http://www.w3.org/2000/svg"
 width="310.000000pt" height="310.000000pt" viewBox="0 0 310.000000 310.000000"
 preserveAspectRatio="xMidYMid meet">
<metadata>
Created by potrace 1.11, written by Peter Selinger 2001-2013
</metadata>
<g transform="translate(0.000000,310.000000) scale(0.100000,-0.100000)"
fill="#000000" stroke="none">
<path d="M1400 2954 c-240 -29 -496 -130 -687 -270 -91 -66 -229 -204 -293
-292 -356 -489 -370 -1152 -35 -1642 77 -114 137 -181 240 -270 271 -235 575
-351 925 -351 395 -1 720 134 1005 416 269 267 415 616 415 993 0 473 -218
893 -610 1173 -142 102 -317 178 -505 220 -88 20 -364 34 -455 23z m965 -891
c198 -54 334 -193 374 -381 17 -83 14 -228 -8 -314 -27 -105 -63 -172 -133
-244 -132 -138 -338 -194 -658 -179 -80 3 -153 8 -162 11 -17 5 -18 40 -18
559 l0 554 33 6 c60 10 151 13 327 10 135 -2 191 -7 245 -22z m-875 -138 l0
-145 -175 0 -175 0 -2 -412 -3 -413 -190 0 -190 0 -3 413 -2 412 -170 0 -170
0 0 145 0 145 540 0 540 0 0 -145z"/>
</g>
</svg>
